]0;Cam2 - RC2Input #0, rtsp, from 'rtsp://admin:sispala-RC2@192.168.0.11:554/stream1':
  Metadata:
    title           : Session streamed by "TP-LINK RTSP Server"
  Duration: N/A, start: 0.000000, bitrate: N/A
  Stream #0:0: Video: h264 (High), yuvj420p(pc, progressive), 1280x720, 15 fps, 25 tbr, 90k tbn
  Stream #0:1: Audio: pcm_alaw, 8000 Hz, mono, s16, 64 kb/s
Stream mapping:
  Stream #0:0 -> #0:0 (h264 (native) -> h264 (h264_vaapi))
  Stream #0:1 -> #0:1 (pcm_alaw (native) -> aac (native))
  Stream #0:0 -> #1:0 (copy)
  Stream #0:1 -> #1:1 (pcm_alaw (native) -> aac (native))
Press [q] to stop, [?] for help
[aac @ 0x55c090f4a940] Too many bits 8832.000000 > 6144 per frame requested, clamping to max
[segment @ 0x55c090f48ac0] Opening '/home/sispala/myversion/Sispala_Web/Rekaman/cam2/2026-05-26_19-21.mp4' for writing
Output #1, segment, to '/home/sispala/myversion/Sispala_Web/Rekaman/cam2/%Y-%m-%d_%H-%M.mp4':
  Metadata:
    title           : Session streamed by "TP-LINK RTSP Server"
    encoder         : Lavf62.12.101
  Stream #1:0: Video: h264 (High), yuvj420p(pc, progressive), 1280x720, q=2-31, 15 fps, 25 tbr, 90k tbn
  Stream #1:1: Audio: aac (LC), 8000 Hz, mono, fltp, 48 kb/s
    Metadata:
      encoder         : Lavc62.28.101 aac
[aac @ 0x55c090eba740] Queue input is backward in time
[segment @ 0x55c090f48ac0] Timestamps are unset in a packet for stream 0. This is deprecated and will stop working in the future. Fix your code to set the timestamps properly
[vost#1:0/copy @ 0x55c090f496c0] Non-monotonic DTS; previous: 0, current: 0; changing to 1. This may result in incorrect timestamps in the output file.
Output #0, hls, to 'Streams/cam2/index.m3u8':
  Metadata:
    title           : Session streamed by "TP-LINK RTSP Server"
    encoder         : Lavf62.12.101
  Stream #0:0: Video: h264 (High), vaapi(pc, progressive), 640x360, q=2-31, 15 fps, 90k tbn
    Metadata:
      encoder         : Lavc62.28.101 h264_vaapi
  Stream #0:1: Audio: aac (LC), 16000 Hz, mono, fltp, 64 kb/s
    Metadata:
      encoder         : Lavc62.28.101 aac
[aost#0:1/aac @ 0x55c090eb9f80] Non-monotonic DTS; previous: 5760, current: 0; changing to 5761. This may result in incorrect timestamps in the output file.
[vost#1:0/copy @ 0x55c090f496c0] Non-monotonic DTS; previous: 176400, current: 176400; changing to 176401. This may result in incorrect timestamps in the output file.
frame=   29 fps=0.0 q=-0.0 q=-1.0 size=N/A time=00:00:01.86 bitrate=N/A speed=3.73x elapsed=0:00:00.50    frame=   37 fps= 37 q=-0.0 q=-1.0 size=N/A time=00:00:02.40 bitrate=N/A speed= 2.4x elapsed=0:00:01.00    frame=   44 fps= 29 q=-0.0 q=-1.0 size=N/A time=00:00:02.86 bitrate=N/A speed=1.91x elapsed=0:00:01.50    [vost#1:0/copy @ 0x55c090f496c0] Non-monotonic DTS; previous: 291600, current: 291600; changing to 291601. This may result in incorrect timestamps in the output file.
[vost#1:0/copy @ 0x55c090f496c0] Non-monotonic DTS; previous: 302400, current: 302400; changing to 302401. This may result in incorrect timestamps in the output file.
[vost#1:0/copy @ 0x55c090f496c0] Non-monotonic DTS; previous: 320400, current: 320400; changing to 320401. This may result in incorrect timestamps in the output file.
[vost#1:0/copy @ 0x55c090f496c0] Non-monotonic DTS; previous: 338400, current: 338400; changing to 338401. This may result in incorrect timestamps in the output file.
frame=   53 fps= 26 q=-0.0 q=-1.0 size=N/A time=00:00:03.45 bitrate=N/A speed=1.73x elapsed=0:00:02.00    [vost#1:0/copy @ 0x55c090f496c0] Non-monotonic DTS; previous: 356400, current: 356400; changing to 356401. This may result in incorrect timestamps in the output file.
frame=   59 fps= 24 q=-0.0 q=-1.0 size=N/A time=00:00:03.86 bitrate=N/A speed=1.55x elapsed=0:00:02.50    [hls @ 0x55c090dd1440] Opening 'Streams/cam2/seg000.ts' for writing
[hls @ 0x55c090dd1440] Opening 'Streams/cam2/index.m3u8.tmp' for writing
[vost#1:0/copy @ 0x55c090f496c0] Non-monotonic DTS; previous: 392400, current: 392400; changing to 392401. This may result in incorrect timestamps in the output file.
[vost#1:0/copy @ 0x55c090f496c0] Non-monotonic DTS; previous: 410400, current: 410400; changing to 410401. This may result in incorrect timestamps in the output file.
[vost#1:0/copy @ 0x55c090f496c0] Non-monotonic DTS; previous: 428400, current: 428400; changing to 428401. This may result in incorrect timestamps in the output file.
frame=   68 fps= 23 q=-0.0 q=-1.0 size=N/A time=00:00:04.46 bitrate=N/A speed=1.49x elapsed=0:00:03.00    [vost#1:0/copy @ 0x55c090f496c0] Non-monotonic DTS; previous: 446400, current: 446400; changing to 446401. This may result in incorrect timestamps in the output file.
frame=   74 fps= 21 q=-0.0 q=-1.0 size=N/A time=00:00:04.86 bitrate=N/A speed=1.39x elapsed=0:00:03.50    [vost#1:0/copy @ 0x55c090f496c0] Non-monotonic DTS; previous: 482400, current: 482400; changing to 482401. This may result in incorrect timestamps in the output file.
[vost#1:0/copy @ 0x55c090f496c0] Non-monotonic DTS; previous: 500400, current: 500400; changing to 500401. This may result in incorrect timestamps in the output file.
[vost#1:0/copy @ 0x55c090f496c0] Non-monotonic DTS; previous: 518400, current: 518400; changing to 518401. This may result in incorrect timestamps in the output file.
frame=   83 fps= 21 q=-0.0 q=-1.0 size=N/A time=00:00:05.46 bitrate=N/A speed=1.37x elapsed=0:00:04.00    [vost#1:0/copy @ 0x55c090f496c0] Non-monotonic DTS; previous: 536400, current: 536400; changing to 536401. This may result in incorrect timestamps in the output file.
frame=   89 fps= 20 q=-0.0 q=-1.0 size=N/A time=00:00:05.86 bitrate=N/A speed= 1.3x elapsed=0:00:04.50    [vost#1:0/copy @ 0x55c090f496c0] Non-monotonic DTS; previous: 572400, current: 572400; changing to 572401. This may result in incorrect timestamps in the output file.
[vost#1:0/copy @ 0x55c090f496c0] Non-monotonic DTS; previous: 597600, current: 597600; changing to 597601. This may result in incorrect timestamps in the output file.
frame=   97 fps= 19 q=-0.0 q=-1.0 size=N/A time=00:00:06.40 bitrate=N/A speed=1.28x elapsed=0:00:05.00    frame=  104 fps= 19 q=-0.0 q=-1.0 size=N/A time=00:00:06.86 bitrate=N/A speed=1.25x elapsed=0:00:05.50    frame=  112 fps= 19 q=-0.0 q=-1.0 size=N/A time=00:00:07.40 bitrate=N/A speed=1.23x elapsed=0:00:06.00    [vost#1:0/copy @ 0x55c090f496c0] Non-monotonic DTS; previous: 716400, current: 716400; changing to 716401. This may result in incorrect timestamps in the output file.
frame=  119 fps= 18 q=-0.0 q=-1.0 size=N/A time=00:00:07.86 bitrate=N/A speed=1.21x elapsed=0:00:06.50    [hls @ 0x55c090dd1440] Opening 'Streams/cam2/seg001.ts' for writing
[hls @ 0x55c090dd1440] Opening 'Streams/cam2/index.m3u8.tmp' for writing
frame=  127 fps= 18 q=-0.0 q=-1.0 size=N/A time=00:00:08.40 bitrate=N/A speed= 1.2x elapsed=0:00:07.00    frame=  134 fps= 18 q=-0.0 q=-1.0 size=N/A time=00:00:08.86 bitrate=N/A speed=1.18x elapsed=0:00:07.50    frame=  142 fps= 18 q=-0.0 q=-1.0 size=N/A time=00:00:09.40 bitrate=N/A speed=1.17x elapsed=0:00:08.00    [vost#1:0/copy @ 0x55c090f496c0] Non-monotonic DTS; previous: 896400, current: 896400; changing to 896401. This may result in incorrect timestamps in the output file.
frame=  149 fps= 18 q=-0.0 q=-1.0 size=N/A time=00:00:09.86 bitrate=N/A speed=1.16x elapsed=0:00:08.50    frame=  157 fps= 17 q=-0.0 q=-1.0 size=N/A time=00:00:10.40 bitrate=N/A speed=1.16x elapsed=0:00:09.00    frame=  164 fps= 17 q=-0.0 q=-1.0 size=N/A time=00:00:10.86 bitrate=N/A speed=1.14x elapsed=0:00:09.50    frame=  172 fps= 17 q=-0.0 q=-1.0 size=N/A time=00:00:11.40 bitrate=N/A speed=1.14x elapsed=0:00:10.00    [vost#1:0/copy @ 0x55c090f496c0] Non-monotonic DTS; previous: 1076400, current: 1076400; changing to 1076401. This may result in incorrect timestamps in the output file.
frame=  179 fps= 17 q=-0.0 q=-1.0 size=N/A time=00:00:11.86 bitrate=N/A speed=1.13x elapsed=0:00:10.50    [hls @ 0x55c090dd1440] Opening 'Streams/cam2/seg002.ts' for writing
[hls @ 0x55c090dd1440] Opening 'Streams/cam2/index.m3u8.tmp' for writing
frame=  187 fps= 17 q=-0.0 q=-1.0 size=N/A time=00:00:12.40 bitrate=N/A speed=1.13x elapsed=0:00:11.00    frame=  194 fps= 17 q=-0.0 q=-1.0 size=N/A time=00:00:12.86 bitrate=N/A speed=1.12x elapsed=0:00:11.50    frame=  202 fps= 17 q=-0.0 q=-1.0 size=N/A time=00:00:13.40 bitrate=N/A speed=1.12x elapsed=0:00:12.00    [vost#1:0/copy @ 0x55c090f496c0] Non-monotonic DTS; previous: 1256400, current: 1256400; changing to 1256401. This may result in incorrect timestamps in the output file.
frame=  209 fps= 17 q=-0.0 q=-1.0 size=N/A time=00:00:13.86 bitrate=N/A speed=1.11x elapsed=0:00:12.50    frame=  217 fps= 17 q=-0.0 q=-1.0 size=N/A time=00:00:14.40 bitrate=N/A speed=1.11x elapsed=0:00:13.00    frame=  224 fps= 17 q=-0.0 q=-1.0 size=N/A time=00:00:14.86 bitrate=N/A speed= 1.1x elapsed=0:00:13.50    frame=  232 fps= 17 q=-0.0 q=-1.0 size=N/A time=00:00:15.40 bitrate=N/A speed= 1.1x elapsed=0:00:14.00    [vost#1:0/copy @ 0x55c090f496c0] Non-monotonic DTS; previous: 1436400, current: 1436400; changing to 1436401. This may result in incorrect timestamps in the output file.
frame=  239 fps= 16 q=-0.0 q=-1.0 size=N/A time=00:00:15.86 bitrate=N/A speed=1.09x elapsed=0:00:14.50    [hls @ 0x55c090dd1440] Opening 'Streams/cam2/seg003.ts' for writing
[hls @ 0x55c090dd1440] Opening 'Streams/cam2/index.m3u8.tmp' for writing
frame=  247 fps= 16 q=-0.0 q=-1.0 size=N/A time=00:00:16.40 bitrate=N/A speed=1.09x elapsed=0:00:15.00    [vost#1:0/copy @ 0x55c090f496c0] Non-monotonic DTS; previous: 1537200, current: 1537200; changing to 1537201. This may result in incorrect timestamps in the output file.
frame=  254 fps= 16 q=-0.0 q=-1.0 size=N/A time=00:00:16.86 bitrate=N/A speed=1.09x elapsed=0:00:15.50    [vost#1:0/copy @ 0x55c090f496c0] Non-monotonic DTS; previous: 1562400, current: 1562400; changing to 1562401. This may result in incorrect timestamps in the output file.
[vost#1:0/copy @ 0x55c090f496c0] Non-monotonic DTS; previous: 1580400, current: 1580400; changing to 1580401. This may result in incorrect timestamps in the output file.
[vost#1:0/copy @ 0x55c090f496c0] Non-monotonic DTS; previous: 1598400, current: 1598400; changing to 1598401. This may result in incorrect timestamps in the output file.
frame=  263 fps= 16 q=-0.0 q=-1.0 size=N/A time=00:00:17.46 bitrate=N/A speed=1.09x elapsed=0:00:16.00    [vost#1:0/copy @ 0x55c090f496c0] Non-monotonic DTS; previous: 1616400, current: 1616400; changing to 1616401. This may result in incorrect timestamps in the output file.
frame=  269 fps= 16 q=-0.0 q=-1.0 size=N/A time=00:00:17.86 bitrate=N/A speed=1.08x elapsed=0:00:16.50    [vost#1:0/copy @ 0x55c090f496c0] Non-monotonic DTS; previous: 1652400, current: 1652400; changing to 1652401. This may result in incorrect timestamps in the output file.
[vost#1:0/copy @ 0x55c090f496c0] Non-monotonic DTS; previous: 1670400, current: 1670400; changing to 1670401. This may result in incorrect timestamps in the output file.
[vost#1:0/copy @ 0x55c090f496c0] Non-monotonic DTS; previous: 1688400, current: 1688400; changing to 1688401. This may result in incorrect timestamps in the output file.
frame=  278 fps= 16 q=-0.0 q=-1.0 size=N/A time=00:00:18.46 bitrate=N/A speed=1.09x elapsed=0:00:17.00    [vost#1:0/copy @ 0x55c090f496c0] Non-monotonic DTS; previous: 1706400, current: 1706400; changing to 1706401. This may result in incorrect timestamps in the output file.
frame=  284 fps= 16 q=-0.0 q=-1.0 size=N/A time=00:00:18.86 bitrate=N/A speed=1.08x elapsed=0:00:17.50    [vost#1:0/copy @ 0x55c090f496c0] Non-monotonic DTS; previous: 1742400, current: 1742400; changing to 1742401. This may result in incorrect timestamps in the output file.
[vost#1:0/copy @ 0x55c090f496c0] Non-monotonic DTS; previous: 1760400, current: 1760400; changing to 1760401. This may result in incorrect timestamps in the output file.
[vost#1:0/copy @ 0x55c090f496c0] Non-monotonic DTS; previous: 1778400, current: 1778400; changing to 1778401. This may result in incorrect timestamps in the output file.
frame=  293 fps= 16 q=-0.0 q=-1.0 size=N/A time=00:00:19.45 bitrate=N/A speed=1.08x elapsed=0:00:18.00    [vost#1:0/copy @ 0x55c090f496c0] Non-monotonic DTS; previous: 1796400, current: 1796400; changing to 1796401. This may result in incorrect timestamps in the output file.
frame=  299 fps= 16 q=-0.0 q=-1.0 size=N/A time=00:00:19.86 bitrate=N/A speed=1.07x elapsed=0:00:18.50    [vost#1:0/copy @ 0x55c090f496c0] Non-monotonic DTS; previous: 1821600, current: 1821600; changing to 1821601. This may result in incorrect timestamps in the output file.
[hls @ 0x55c090dd1440] Opening 'Streams/cam2/seg004.ts' for writing
[hls @ 0x55c090dd1440] Opening 'Streams/cam2/index.m3u8.tmp' for writing
frame=  307 fps= 16 q=-0.0 q=-1.0 size=N/A time=00:00:20.40 bitrate=N/A speed=1.07x elapsed=0:00:19.00    frame=  314 fps= 16 q=-0.0 q=-1.0 size=N/A time=00:00:20.86 bitrate=N/A speed=1.07x elapsed=0:00:19.50    frame=  322 fps= 16 q=-0.0 q=-1.0 size=N/A time=00:00:21.40 bitrate=N/A speed=1.07x elapsed=0:00:20.00    [vost#1:0/copy @ 0x55c090f496c0] Non-monotonic DTS; previous: 1976400, current: 1976400; changing to 1976401. This may result in incorrect timestamps in the output file.
frame=  329 fps= 16 q=-0.0 q=-1.0 size=N/A time=00:00:21.86 bitrate=N/A speed=1.07x elapsed=0:00:20.50    [vost#1:0/copy @ 0x55c090f496c0] Non-monotonic DTS; previous: 2012400, current: 2012400; changing to 2012401. This may result in incorrect timestamps in the output file.
[vost#1:0/copy @ 0x55c090f496c0] Non-monotonic DTS; previous: 2030400, current: 2030400; changing to 2030401. This may result in incorrect timestamps in the output file.
[vost#1:0/copy @ 0x55c090f496c0] Non-monotonic DTS; previous: 2048400, current: 2048400; changing to 2048401. This may result in incorrect timestamps in the output file.
frame=  338 fps= 16 q=-0.0 q=-1.0 size=N/A time=00:00:22.46 bitrate=N/A speed=1.07x elapsed=0:00:21.00    [vost#1:0/copy @ 0x55c090f496c0] Non-monotonic DTS; previous: 2066400, current: 2066400; changing to 2066401. This may result in incorrect timestamps in the output file.
frame=  344 fps= 16 q=-0.0 q=-1.0 size=N/A time=00:00:22.86 bitrate=N/A speed=1.06x elapsed=0:00:21.50    [vost#1:0/copy @ 0x55c090f496c0] Non-monotonic DTS; previous: 2102400, current: 2102400; changing to 2102401. This may result in incorrect timestamps in the output file.
[vost#1:0/copy @ 0x55c090f496c0] Non-monotonic DTS; previous: 2120400, current: 2120400; changing to 2120401. This may result in incorrect timestamps in the output file.
[vost#1:0/copy @ 0x55c090f496c0] Non-monotonic DTS; previous: 2138400, current: 2138400; changing to 2138401. This may result in incorrect timestamps in the output file.
frame=  353 fps= 16 q=-0.0 q=-1.0 size=N/A time=00:00:23.46 bitrate=N/A speed=1.07x elapsed=0:00:22.00    [vost#1:0/copy @ 0x55c090f496c0] Non-monotonic DTS; previous: 2156400, current: 2156400; changing to 2156401. This may result in incorrect timestamps in the output file.
frame=  359 fps= 16 q=-0.0 q=-1.0 size=N/A time=00:00:23.86 bitrate=N/A speed=1.06x elapsed=0:00:22.50    [hls @ 0x55c090dd1440] Opening 'Streams/cam2/seg005.ts' for writing
[hls @ 0x55c090dd1440] Opening 'Streams/cam2/index.m3u8.tmp' for writing
[vost#1:0/copy @ 0x55c090f496c0] Non-monotonic DTS; previous: 2192400, current: 2192400; changing to 2192401. This may result in incorrect timestamps in the output file.
[vost#1:0/copy @ 0x55c090f496c0] Non-monotonic DTS; previous: 2217600, current: 2217600; changing to 2217601. This may result in incorrect timestamps in the output file.
frame=  367 fps= 16 q=-0.0 q=-1.0 size=N/A time=00:00:24.40 bitrate=N/A speed=1.06x elapsed=0:00:23.00    [vost#1:0/copy @ 0x55c090f496c0] Non-monotonic DTS; previous: 2228400, current: 2228400; changing to 2228401. This may result in incorrect timestamps in the output file.
[vost#1:0/copy @ 0x55c090f496c0] Non-monotonic DTS; previous: 2257200, current: 2257200; changing to 2257201. This may result in incorrect timestamps in the output file.
frame=  374 fps= 16 q=-0.0 q=-1.0 size=N/A time=00:00:24.86 bitrate=N/A speed=1.06x elapsed=0:00:23.50    frame=  382 fps= 16 q=-0.0 q=-1.0 size=N/A time=00:00:25.40 bitrate=N/A speed=1.06x elapsed=0:00:24.00    [vost#1:0/copy @ 0x55c090f496c0] Non-monotonic DTS; previous: 2336400, current: 2336400; changing to 2336401. This may result in incorrect timestamps in the output file.
frame=  389 fps= 16 q=-0.0 q=-1.0 size=N/A time=00:00:25.86 bitrate=N/A speed=1.06x elapsed=0:00:24.50    frame=  397 fps= 16 q=-0.0 q=-1.0 size=N/A time=00:00:26.40 bitrate=N/A speed=1.06x elapsed=0:00:25.00    frame=  404 fps= 16 q=-0.0 q=-1.0 size=N/A time=00:00:26.86 bitrate=N/A speed=1.05x elapsed=0:00:25.50    frame=  412 fps= 16 q=-0.0 q=-1.0 size=N/A time=00:00:27.40 bitrate=N/A speed=1.05x elapsed=0:00:26.00    [vost#1:0/copy @ 0x55c090f496c0] Non-monotonic DTS; previous: 2516400, current: 2516400; changing to 2516401. This may result in incorrect timestamps in the output file.
frame=  419 fps= 16 q=-0.0 q=-1.0 size=N/A time=00:00:27.86 bitrate=N/A speed=1.05x elapsed=0:00:26.50    [hls @ 0x55c090dd1440] Opening 'Streams/cam2/seg006.ts' for writing
[hls @ 0x55c090dd1440] Opening 'Streams/cam2/index.m3u8.tmp' for writing
frame=  427 fps= 16 q=-0.0 q=-1.0 size=N/A time=00:00:28.40 bitrate=N/A speed=1.05x elapsed=0:00:27.00    frame=  434 fps= 16 q=-0.0 q=-1.0 size=N/A time=00:00:28.86 bitrate=N/A speed=1.05x elapsed=0:00:27.50    frame=  442 fps= 16 q=-0.0 q=-1.0 size=N/A time=00:00:29.40 bitrate=N/A speed=1.05x elapsed=0:00:28.00    [vost#1:0/copy @ 0x55c090f496c0] Non-monotonic DTS; previous: 2696400, current: 2696400; changing to 2696401. This may result in incorrect timestamps in the output file.
frame=  449 fps= 16 q=-0.0 q=-1.0 size=N/A time=00:00:29.86 bitrate=N/A speed=1.05x elapsed=0:00:28.50    frame=  457 fps= 16 q=-0.0 q=-1.0 size=N/A time=00:00:30.40 bitrate=N/A speed=1.05x elapsed=0:00:29.00    frame=  464 fps= 16 q=-0.0 q=-1.0 size=N/A time=00:00:30.86 bitrate=N/A speed=1.05x elapsed=0:00:29.50    frame=  472 fps= 16 q=-0.0 q=-1.0 size=N/A time=00:00:31.40 bitrate=N/A speed=1.05x elapsed=0:00:30.00    [vost#1:0/copy @ 0x55c090f496c0] Non-monotonic DTS; previous: 2876400, current: 2876400; changing to 2876401. This may result in incorrect timestamps in the output file.
frame=  479 fps= 16 q=-0.0 q=-1.0 size=N/A time=00:00:31.86 bitrate=N/A speed=1.04x elapsed=0:00:30.50    [hls @ 0x55c090dd1440] Opening 'Streams/cam2/seg007.ts' for writing
[hls @ 0x55c090dd1440] Opening 'Streams/cam2/index.m3u8.tmp' for writing
frame=  487 fps= 16 q=-0.0 q=-1.0 size=N/A time=00:00:32.40 bitrate=N/A speed=1.04x elapsed=0:00:31.00    frame=  494 fps= 16 q=-0.0 q=-1.0 size=N/A time=00:00:32.86 bitrate=N/A speed=1.04x elapsed=0:00:31.50    frame=  502 fps= 16 q=-0.0 q=-1.0 size=N/A time=00:00:33.40 bitrate=N/A speed=1.04x elapsed=0:00:32.00    [vost#1:0/copy @ 0x55c090f496c0] Non-monotonic DTS; previous: 3056400, current: 3056400; changing to 3056401. This may result in incorrect timestamps in the output file.
frame=  509 fps= 16 q=-0.0 q=-1.0 size=N/A time=00:00:33.86 bitrate=N/A speed=1.04x elapsed=0:00:32.50    frame=  517 fps= 16 q=-0.0 q=-1.0 size=N/A time=00:00:34.40 bitrate=N/A speed=1.04x elapsed=0:00:33.00    [hls @ 0x55c090dd1440] Opening 'Streams/cam2/seg008.ts' for writing
[hls @ 0x55c090dd1440] Opening 'Streams/cam2/index.m3u8.tmp' for writing
[out#0/hls @ 0x55c090daaf80] video:720KiB audio:205KiB subtitle:0KiB other streams:0KiB global headers:0KiB muxing overhead: unknown
[out#1/segment @ 0x55c090f45ec0] video:730KiB audio:134KiB subtitle:0KiB other streams:0KiB global headers:0KiB muxing overhead: unknown
frame=  531 fps= 16 q=-0.0 Lq=-1.0 size=N/A time=00:00:35.32 bitrate=N/A speed=1.05x elapsed=0:00:33.59    
[aac @ 0x55c090eba740] Qavg: 63758.414
[aac @ 0x55c090f4a940] Qavg: 64323.496
Exiting normally, received signal 2.
